PathFileType	4	(X/Y/Z)	C:/Users/opensim2020/Desktop/walking_exp_matlab/subject06_walking11_run.trc	
DataRate	CameraRate	NumFrames	NumMarkers	Units	OrigDataRate	OrigDataStartFrame	OrigNumFrames	
100.00	100.00	7	46	mm	100.00	252	106	
Frame#	Time	LKNE			RKNE			RFRM			RWRA			RWRB			RELB			RUPA			RSHO			LWRA			RFIN			RFHD			CLAV			RASI			RTHI			LSHO			LTHI			RBHD			C7			LTIB			LANK			LTOE			LBHD			RTIB			RBAK			LHEE			RANK			STRN			RHEE			RTOE			T10			LUPA			LFHD			LPSI			RPSI			LASI			LFRM			LWRB			LFIN			LELB			*39			*40			*41			*42			*43			*44			*45			
		X1	Y1	Z1	X2	Y2	Z2	X3	Y3	Z3	X4	Y4	Z4	X5	Y5	Z5	X6	Y6	Z6	X7	Y7	Z7	X8	Y8	Z8	X9	Y9	Z9	X10	Y10	Z10	X11	Y11	Z11	X12	Y12	Z12	X13	Y13	Z13	X14	Y14	Z14	X15	Y15	Z15	X16	Y16	Z16	X17	Y17	Z17	X18	Y18	Z18	X19	Y19	Z19	X20	Y20	Z20	X21	Y21	Z21	X22	Y22	Z22	X23	Y23	Z23	X24	Y24	Z24	X25	Y25	Z25	X26	Y26	Z26	X27	Y27	Z27	X28	Y28	Z28	X29	Y29	Z29	X30	Y30	Z30	X31	Y31	Z31	X32	Y32	Z32	X33	Y33	Z33	X34	Y34	Z34	X35	Y35	Z35	X36	Y36	Z36	X37	Y37	Z37	X38	Y38	Z38	X39	Y39	Z39	X40	Y40	Z40	X41	Y41	Z41	X42	Y42	Z42	X43	Y43	Z43	X44	Y44	Z44	X45	Y45	Z45	X46	Y46	Z46	

67	0.660	99.21087	515.53448	525.51141	348.20483	907.83453	629.06323	467.88577	573.35071	1227.07800	405.51083	700.30933	1208.74170	444.35056	685.03137	1157.30261	473.78461	501.46301	1298.68408	426.63916	566.33154	1376.09717	339.44003	720.96472	1451.49658	75.86212	872.87561	1260.15027	432.29260	767.46991	1162.25562	275.10617	811.59949	1674.58850	210.76634	806.36035	1392.86938	321.42847	764.19751	994.78833	379.98880	833.47925	728.84338	49.41095	783.88098	1436.17578	66.48318	584.18793	677.04523	256.06030	686.17719	1613.34241	178.09419	705.18951	1473.82166	106.77631	327.90002	348.48584	142.50468	211.60251	225.88881	196.65211	210.97728	79.00503	127.44930	701.23834	1618.32764	326.63956	914.01703	362.83459	229.72198	605.82306	1332.12512	180.09596	186.80539	263.67911	267.13931	913.04523	180.68475	219.67722	829.64648	1212.31580	220.43912	872.71643	167.21123	252.07372	1060.50574	119.43278	187.52687	627.50836	1164.05090	-60.34502	777.96729	1270.78430	144.19386	827.27356	1685.23071	128.13744	623.62073	1025.03052	292.36737	623.96655	1039.27087	113.06580	765.34045	962.80652	-11.68455	853.11591	1169.84534	91.22865	900.57214	1197.11316	141.70064	940.90723	1260.15442	-105.11270	765.67395	1172.55054				189.52200	717.47192	1714.72827															 
68	0.670	97.51231	555.35919	529.96460	346.51993	942.78131	625.76575	465.37808	610.97546	1231.44983	403.95847	738.82098	1214.91272	442.15549	723.72046	1162.97925	471.79886	538.32391	1302.01440	425.43063	604.61884	1379.80383	339.90463	759.92908	1455.24036	75.84595	911.99164	1268.05396	430.33966	806.36017	1168.38831	276.27887	850.37244	1678.92261	211.18755	845.05267	1397.36536	321.53647	804.54877	998.63446	379.59662	868.57147	726.28540	50.20572	822.12231	1441.85754	65.50618	625.53552	680.83508	257.27771	725.03729	1617.57275	178.93800	743.23474	1477.69885	104.47261	362.77563	358.91220	140.58824	238.07021	243.25002	189.66748	239.14183	94.27386	128.68396	739.98737	1622.83850	323.62817	961.33197	359.92542	229.30908	645.07617	1336.45605	179.32645	213.60539	279.43134	262.84106	976.13593	178.90865	219.52730	869.37830	1216.95557	215.53087	937.42188	166.71309	247.12952	1125.95825	119.18841	187.20654	667.97589	1169.42957	-59.96610	817.25269	1276.64685	145.34317	865.86719	1689.79077	125.78898	666.10400	1029.81580	290.46106	664.47620	1042.10669	112.49278	806.76160	967.13458	-10.53445	893.08240	1176.37769	92.86048	939.08002	1205.17468	142.94331	978.48132	1269.01685	-104.75444	805.95752	1177.42688				190.76411	756.10095	1719.12329															 
69	0.680	95.92268	598.02295	532.20135	344.40869	976.03784	620.20477	463.52533	649.41595	1233.94629	402.81726	777.98633	1219.46082	439.79013	763.07385	1166.57715	470.53464	575.89740	1303.46301	425.03683	642.67114	1381.59985	340.58475	798.56873	1457.94336	75.58013	951.04382	1274.29077	428.47107	846.00543	1172.95496	277.65540	889.46936	1682.60938	211.53699	883.80273	1401.05005	321.50989	844.48627	1000.71588	379.34772	903.79669	721.54071	50.55707	860.50537	1446.35974	64.51415	668.66772	682.49689	258.49997	763.83002	1621.08923	179.66757	781.68243	1480.98120	102.69823	396.54538	370.09067	138.23102	267.71829	258.60327	183.86896	270.00986	108.77237	129.83679	778.39148	1626.58093	320.51379	1006.81738	356.03949	229.48792	684.42004	1339.12488	177.23770	242.39156	294.21539	259.59363	1035.66724	177.81537	218.60158	908.88263	1220.09473	211.83583	998.23511	166.88022	242.92976	1187.60791	119.15973	187.13809	708.27600	1173.62854	-60.08184	856.31763	1281.13013	146.36217	904.40002	1693.77148	124.22542	707.90576	1033.39929	289.19434	704.56104	1043.45361	111.96714	848.10248	970.60272	-9.70480	932.69440	1181.53418	93.91490	977.62048	1211.57788	144.18732	1016.86090	1275.92590	-104.58357	845.86279	1181.16724				192.05635	794.62195	1722.86621															 
70	0.690	94.36179	642.23016	533.20325	342.15045	1008.43860	612.83215	462.12964	688.68872	1234.60718	401.94754	817.80133	1222.35815	437.96893	803.29883	1168.78857	469.89273	614.19196	1303.09131	425.28210	680.76245	1381.66016	341.31848	836.93390	1459.73413	75.27180	990.02728	1278.87390	426.73050	886.47009	1175.82947	278.37802	927.93555	1685.30249	211.89812	922.69659	1403.89673	321.58292	884.36108	1001.50824	378.66058	938.70624	714.72260	50.55791	898.96570	1449.65198	63.69780	713.02637	682.97522	259.73947	802.62872	1623.83813	180.53523	820.45801	1483.82520	100.80534	431.59100	380.97476	135.53526	300.01419	272.93448	179.00090	301.92850	122.97697	131.06857	816.80011	1629.60693	317.21594	1050.43616	351.92734	229.89520	723.30481	1340.59521	174.59627	274.67285	308.67645	256.50128	1090.39941	176.90086	217.93744	948.45886	1222.97119	208.68373	1054.07043	166.61534	239.08627	1244.45227	119.98906	187.14337	748.27679	1176.24097	-60.15508	895.25269	1284.10791	147.42403	942.80981	1696.83765	123.15215	748.13745	1035.86157	288.45493	744.46088	1043.58105	111.52159	889.27209	973.38977	-9.35274	971.97522	1185.35193	94.31944	1016.40051	1216.25391	144.69908	1055.13184	1280.96289	-104.60703	885.16870	1183.86487				193.43782	833.14215	1725.82434															 
71	0.700	92.69556	687.15723	533.33057	339.80627	1040.86731	604.64746	461.09055	728.85382	1233.44812	401.43381	858.63818	1223.59619	436.02542	844.40277	1169.05200	469.80951	653.38208	1301.02930	425.75772	719.13043	1380.23999	342.14111	875.27545	1460.60144	74.66986	1029.10645	1281.71411	425.11612	927.76605	1177.01025	279.01407	966.37781	1686.94666	212.15729	961.50116	1405.83789	321.35510	924.20459	1001.15918	377.61157	972.99371	706.60236	50.32535	937.61414	1451.91711	62.28880	757.54504	683.19885	261.07205	841.42181	1625.67798	181.18845	859.15417	1486.18530	98.84309	470.37241	390.25998	133.13913	334.26086	286.96140	174.29477	334.96579	136.81396	132.50385	855.16602	1631.93530	314.16559	1091.78601	348.29449	230.41675	762.30286	1340.86060	173.03635	309.58719	322.75339	253.19530	1139.50305	175.79050	217.36203	987.95288	1224.94189	205.23781	1104.76636	164.60843	235.04510	1295.94922	121.84196	187.05885	788.06030	1177.21338	-60.22630	934.09320	1285.81519	148.40973	981.10339	1699.03796	122.59804	788.03766	1037.10229	288.20969	784.03412	1042.87769	110.86991	930.30322	975.53088	-9.56419	1010.74237	1187.84290	93.98820	1055.36462	1219.17126	144.76451	1093.69971	1284.04907	-104.80307	923.75916	1185.70093				195.03403	871.65552	1727.84888															 
72	0.710	90.79661	733.46729	532.21307	337.29449	1073.74939	596.95471	460.44003	770.14813	1230.53479	400.66150	899.96606	1222.93640	434.14316	886.39453	1167.62524	470.13504	693.56848	1297.25916	426.36688	758.05176	1377.49524	343.03870	913.72125	1460.61584	73.97354	1068.05884	1282.85620	423.50537	970.00659	1176.52637	280.28860	1005.56586	1688.03711	212.35568	1000.23010	1406.87744	320.41705	963.72321	1000.07257	376.87289	1006.83307	698.39667	50.16113	976.31787	1453.07031	60.92725	802.25537	683.13434	262.54883	880.21661	1626.47900	182.16316	898.28894	1487.62207	97.21440	511.63812	398.02722	131.13435	370.69012	300.39859	169.32407	370.03244	150.24271	133.87852	893.17242	1633.07361	311.56448	1130.47461	344.77832	231.24059	801.08246	1340.16418	172.10867	346.73300	336.39868	249.91805	1182.99170	173.70944	216.77303	1027.26819	1226.03003	202.11705	1148.85352	161.94276	230.67825	1341.45630	122.85029	186.75241	827.46484	1176.69580	-59.97882	972.30048	1286.42847	149.30164	1019.26624	1700.28882	122.10689	826.99927	1036.98560	288.20438	823.67291	1041.69788	109.78991	971.28094	977.15955	-10.23254	1048.95886	1188.98840	93.05241	1094.40686	1220.32751	144.23407	1132.63660	1285.11194	-105.03378	961.41809	1186.72986				196.49001	909.95044	1728.90405															 
73	0.720	88.72781	781.60571	529.36023	334.79245	1107.13660	590.19299	460.08240	812.47272	1225.90930	400.09918	942.24731	1220.74304	432.48657	929.34552	1164.60999	470.62769	734.84509	1291.74976	427.11002	797.35565	1373.43970	344.03189	952.29193	1459.56213	73.22173	1106.86951	1282.34583	421.81189	1012.94165	1174.54932	281.68213	1044.83374	1688.07825	212.52136	1038.93457	1406.89990	318.99060	1003.42175	998.68701	376.27319	1040.25342	690.72504	50.16100	1014.85474	1453.28052	59.03976	847.01178	682.24994	264.10352	918.95905	1626.50342	182.86006	936.95502	1487.75171	95.74821	554.95605	404.53058	129.38266	409.33572	313.46667	164.23648	407.57953	163.17281	135.35712	931.20483	1633.27014	309.00491	1166.46094	340.57681	232.17552	839.98273	1338.61902	171.13676	386.18912	349.26425	246.82660	1221.59387	169.83885	216.25815	1066.55334	1226.12244	198.75804	1187.89673	157.48218	226.07515	1381.01917	120.86012	186.30099	867.06250	1175.01062	-60.21900	1010.56836	1286.31726	150.20909	1057.35327	1700.43469	121.55956	866.41107	1035.81433	287.93814	863.40063	1039.90088	108.31533	1012.12354	978.10468	-11.31831	1086.63928	1188.88391	91.57174	1133.37476	1219.69727	143.15561	1171.78967	1284.07861	-105.36036	998.17181	1187.17468				198.03217	948.30469	1728.98694															 
